<svg xmlns="http://www.w3.org/2000/svg" width="1200" height="630" viewBox="0 0 1200 630">
  <defs>
    <radialGradient id="bg" cx="0" cy="0" r="1" gradientTransform="translate(260 60) rotate(35) scale(760 620)" gradientUnits="userSpaceOnUse">
      <stop stop-color="#48208B"/><stop offset=".58" stop-color="#160D28"/><stop offset="1" stop-color="#090610"/>
    </radialGradient>
    <linearGradient id="g" x1="170" y1="120" x2="1000" y2="550" gradientUnits="userSpaceOnUse">
      <stop stop-color="#C4ADFF"/><stop offset=".55" stop-color="#7C2EF2"/><stop offset="1" stop-color="#F98607"/>
    </linearGradient>
    <filter id="blur"><feGaussianBlur stdDeviation="75"/></filter>
  </defs>
  <rect width="1200" height="630" fill="url(#bg)"/>
  <circle cx="1010" cy="115" r="180" fill="#F98607" fill-opacity=".16" filter="url(#blur)"/>
  <circle cx="905" cy="500" r="230" fill="#7C2EF2" fill-opacity=".25" filter="url(#blur)"/>
  <path d="M0 475C240 355 395 550 650 420s340-70 550-180v390H0Z" fill="url(#g)" fill-opacity=".1"/>
  <rect x="74" y="72" width="1052" height="486" rx="42" fill="#fff" fill-opacity=".035" stroke="#fff" stroke-opacity=".12"/>
  <rect x="132" y="132" width="74" height="74" rx="22" fill="#1B122D" stroke="#fff" stroke-opacity=".14"/>
  <path d="M181 153a23 23 0 1 0 0 32" fill="none" stroke="url(#g)" stroke-width="9" stroke-linecap="round"/>
  <path d="m153 157 7 27 8-27" fill="none" stroke="#fff" stroke-width="6" stroke-linecap="round" stroke-linejoin="round"/>
  <text x="132" y="303" fill="#fff" font-family="Arial, sans-serif" font-size="68" font-weight="700" letter-spacing="-3">CITIWALK</text>
  <text x="132" y="367" fill="#C4ADFF" font-family="Arial, sans-serif" font-size="36" font-weight="700" letter-spacing="8">GLOBAL REWARDS</text>
  <text x="132" y="442" fill="#C8C1D4" font-family="Arial, sans-serif" font-size="25">A premium global rewards experience.</text>
</svg>
